<?xml version="1.0" encoding="UTF-8"?>
<!DOCTYPE svg PUBLIC "-//W3C//DTD SVG 1.1//EN" "http://www.w3.org/Graphics/SVG/1.1/DTD/svg11.dtd">
<!-- Creator: CorelDRAW X7 -->
<svg xmlns="http://www.w3.org/2000/svg" xml:space="preserve" width="945px" height="945px" version="1.1" style="shape-rendering:geometricPrecision; text-rendering:geometricPrecision; image-rendering:optimizeQuality; fill-rule:evenodd; clip-rule:evenodd"
viewBox="0 0 164 164"
 xmlns:xlink="http://www.w3.org/1999/xlink">
 <defs>
  <style type="text/css">
   <![CDATA[
    .fil1 {fill:none}
    .fil0 {fill:black}
    .fil2 {fill:#65F6F3}
   ]]>
  </style>
 </defs>
 <g id="Layer_x0020_1">
  <metadata id="CorelCorpID_0Corel-Layer"/>
  <g id="_413921152">
   <path class="fil0" d="M56 164l34 0 0 -61c0,-5 1,-7 3,-10 3,-6 8,-9 15,-9 17,-1 18,15 18,31 0,16 0,33 0,49l34 0 0 -67c-1,-2 0,-14 -7,-25 -4,-6 -10,-11 -18,-14 -8,-3 -20,-3 -28,0 -6,2 -9,6 -13,11 -2,1 -3,3 -4,4l0 -15 -34 0 0 106z"/>
   <polygon class="fil0" points="2,164 36,164 36,58 2,58 "/>
   <path class="fil0" d="M0 23l0 6 0 1c1,1 1,1 1,2 1,2 2,4 3,6 7,7 21,8 29,1 11,-10 6,-25 -5,-30 -1,0 -3,-1 -5,-1l-7 0c-1,0 -3,0 -6,2 -9,3 -9,11 -10,13z"/>
  </g>
  <rect class="fil1" width="160" height="164"/>
  <g id="_413922040">
   <path class="fil2" d="M60 158l34 0 0 -62c0,-4 1,-6 3,-9 3,-6 8,-9 15,-10 17,0 18,16 18,31 0,17 0,33 0,50l34 0 0 -67c-1,-2 0,-14 -7,-25 -4,-6 -10,-12 -18,-14 -8,-3 -20,-3 -28,0 -6,2 -9,6 -13,10 -2,2 -3,4 -4,5l0 -15 -34 0 0 106z"/>
   <polygon class="fil2" points="6,158 40,158 40,52 6,52 "/>
   <path class="fil2" d="M4 16l0 7 0 1c1,0 1,1 1,1 1,3 2,5 3,6 7,8 21,8 29,1 11,-9 6,-24 -5,-29 -1,-1 -3,-1 -5,-2l-7 0c-1,1 -3,1 -6,2 -9,4 -9,12 -10,13z"/>
  </g>
 </g>
</svg>
