<?xml version="1.0" encoding="UTF-8"?>
<!DOCTYPE svg PUBLIC "-//W3C//DTD SVG 1.1//EN" "http://www.w3.org/Graphics/SVG/1.1/DTD/svg11.dtd">
<!-- Creator: CorelDRAW X7 -->
<svg xmlns="http://www.w3.org/2000/svg" xml:space="preserve" width="945px" height="945px" version="1.1" style="shape-rendering:geometricPrecision; text-rendering:geometricPrecision; image-rendering:optimizeQuality; fill-rule:evenodd; clip-rule:evenodd"
viewBox="0 0 291 291"
 xmlns:xlink="http://www.w3.org/1999/xlink">
 <defs>
  <style type="text/css">
   <![CDATA[
    .fil0 {fill:black}
    .fil1 {fill:#65F6F3}
   ]]>
  </style>
 </defs>
 <g id="Layer_x0020_1">
  <metadata id="CorelCorpID_0Corel-Layer"/>
  <path id="Octicons-mark-github.svg" class="fil0" d="M142 11c-78,0 -142,64 -142,143 0,64 41,118 97,137 7,1 10,-3 10,-7 0,-3 0,-15 0,-27 -36,7 -45,-9 -48,-17 -2,-4 -9,-17 -15,-20 -5,-3 -12,-9 0,-9 11,-1 19,10 22,14 13,22 33,16 41,12 2,-9 5,-16 9,-19 -31,-4 -64,-16 -64,-71 0,-16 5,-29 14,-39 -1,-3 -6,-18 2,-38 0,0 12,-3 39,15 11,-3 23,-5 35,-5 12,0 24,2 36,5 27,-19 39,-15 39,-15 8,20 3,35 1,38 9,10 15,23 15,39 0,55 -33,67 -65,71 5,4 10,13 10,26 0,20 -1,35 -1,40 0,4 3,8 10,7 56,-19 97,-73 97,-137 0,-79 -64,-143 -142,-143z"/>
  <path id="Octicons-mark-github.svg_0" class="fil1" d="M149 0c-78,0 -142,64 -142,144 0,63 41,117 97,136 7,1 10,-3 10,-7 0,-3 0,-15 0,-27 -36,7 -45,-8 -48,-17 -2,-4 -9,-16 -15,-20 -5,-3 -12,-9 0,-9 11,-1 19,10 22,14 13,22 33,16 41,12 2,-9 5,-15 10,-19 -32,-4 -65,-16 -65,-71 0,-16 5,-28 14,-39 -1,-3 -6,-18 2,-38 0,0 12,-3 39,15 11,-3 23,-5 35,-5 12,0 25,2 36,5 27,-19 39,-15 39,-15 8,20 3,35 1,38 9,11 15,23 15,39 0,55 -33,67 -65,71 5,5 10,13 10,27 0,19 0,34 0,39 0,4 2,8 9,7 56,-19 97,-73 97,-136 0,-80 -63,-144 -142,-144z"/>
 </g>
</svg>
