<?xml version="1.0" encoding="UTF-8"?>
<!DOCTYPE svg PUBLIC "-//W3C//DTD SVG 1.1//EN" "http://www.w3.org/Graphics/SVG/1.1/DTD/svg11.dtd">
<!-- Creator: CorelDRAW X7 -->
<svg xmlns="http://www.w3.org/2000/svg" xml:space="preserve" width="945px" height="945px" version="1.1" style="shape-rendering:geometricPrecision; text-rendering:geometricPrecision; image-rendering:optimizeQuality; fill-rule:evenodd; clip-rule:evenodd"
viewBox="0 0 3879 3879"
 xmlns:xlink="http://www.w3.org/1999/xlink">
 <defs>
  <style type="text/css">
   <![CDATA[
    .fil0 {fill:black}
    .fil1 {fill:#65F6F3}
   ]]>
  </style>
 </defs>
 <g id="Layer_x0020_1">
  <metadata id="CorelCorpID_0Corel-Layer"/>
  <path class="fil0" d="M1867 1424c348,-35 600,247 618,566 20,346 -239,594 -570,612 -503,27 -826,-566 -464,-1000 71,-86 263,-162 416,-178zm784 -356c0,-79 9,-119 69,-172 140,-123 360,-60 360,179 0,111 -114,189 -192,189 -71,0 -118,0 -178,-65 -23,-24 -59,-86 -59,-131zm-2651 815l0 663c0,42 6,57 7,94 4,306 29,561 220,812 50,67 90,103 149,156 54,47 124,90 188,124 151,80 315,118 499,127l199 6c37,1 52,7 95,7l526 6c148,0 438,5 576,-6 31,-2 71,0 103,0l292 -21c215,-26 373,-98 531,-228l36 -34c114,-113 196,-188 265,-358 68,-168 86,-341 86,-527 -1,-69 6,-127 6,-202 0,-136 6,-263 6,-405l0 -511c0,-170 -5,-540 -68,-715 -46,-129 -91,-218 -171,-318 -48,-59 -91,-98 -150,-149 -59,-53 -175,-115 -247,-148 -24,-11 -45,-16 -70,-26 -29,-11 -45,-15 -77,-25 -107,-30 -233,-47 -350,-46 -41,0 -55,-5 -89,-6 -34,-1 -69,0 -103,0 -133,0 -258,-7 -397,-7 -263,0 -918,-11 -1165,33 -251,44 -428,141 -598,307 -212,208 -288,519 -286,810l-6 195c0,131 -7,255 -7,392z"/>
  <path class="fil1" d="M1962 1279c348,-36 600,247 618,566 20,346 -239,594 -570,612 -503,27 -826,-566 -464,-1000 71,-86 263,-162 416,-178zm784 -356c0,-79 9,-119 69,-172 140,-123 360,-60 360,178 0,112 -114,190 -192,190 -72,0 -118,-1 -178,-65 -23,-24 -59,-86 -59,-131zm-2651 815l0 663c0,42 6,57 7,94 4,306 29,561 220,812 50,67 89,103 149,156 54,47 124,90 188,124 151,80 315,118 499,127l199 6c37,1 52,7 95,7l526 6c148,0 438,5 576,-6 31,-2 71,0 102,0l293 -21c215,-26 373,-98 530,-228l37 -34c114,-113 196,-188 265,-358 68,-168 86,-341 85,-527 0,-69 7,-128 7,-203 0,-135 6,-262 6,-404l0 -511c0,-171 -5,-540 -68,-715 -46,-129 -91,-218 -171,-318 -48,-59 -91,-98 -150,-149 -59,-53 -175,-115 -247,-148 -24,-12 -45,-16 -70,-26 -29,-11 -45,-16 -77,-25 -107,-30 -233,-47 -350,-46 -41,0 -55,-6 -89,-7 -34,-1 -70,1 -103,1 -133,0 -258,-7 -397,-7 -263,0 -918,-11 -1165,33 -251,44 -428,140 -598,307 -212,208 -288,519 -286,810l-7 195c0,131 -6,255 -6,392z"/>
 </g>
</svg>
