<?xml version="1.0" encoding="UTF-8"?>
<!DOCTYPE svg PUBLIC "-//W3C//DTD SVG 1.1//EN" "http://www.w3.org/Graphics/SVG/1.1/DTD/svg11.dtd">
<!-- Creator: CorelDRAW X7 -->
<svg xmlns="http://www.w3.org/2000/svg" xml:space="preserve" width="945px" height="945px" version="1.1" style="shape-rendering:geometricPrecision; text-rendering:geometricPrecision; image-rendering:optimizeQuality; fill-rule:evenodd; clip-rule:evenodd"
viewBox="0 0 3475 3475"
 xmlns:xlink="http://www.w3.org/1999/xlink">
 <defs>
  <style type="text/css">
   <![CDATA[
    .fil0 {fill:none}
    .fil1 {fill:#65F6F3}
   ]]>
  </style>
 </defs>
 <g id="Layer_x0020_1">
  <metadata id="CorelCorpID_0Corel-Layer"/>
  <rect class="fil0" width="3475" height="3475"/>
  <g id="_424404888">
   <path class="fil1" d="M497 1124c756,98 835,-162 1000,-761l476 7c346,1078 477,639 1029,753l132 516c-635,178 -573,617 -358,1165l-398 308c-224,-148 -495,-618 -1106,-73l-126 98c-166,-88 -231,-170 -398,-253 79,-310 228,-457 74,-825 -116,-278 -265,-257 -462,-435l137 -500zm873 -1065c-363,192 -142,346 -331,603 -191,261 -429,22 -687,168 -160,91 -270,438 -314,658 -87,439 123,417 345,580 537,395 -452,621 378,1227 809,590 719,-518 1237,-61 191,168 302,359 635,147 67,-42 192,-152 273,-210 538,-389 -94,-657 88,-1031 112,-230 412,-108 477,-482 28,-156 -113,-610 -186,-724 -220,-339 -463,-32 -767,-192 -258,-135 -69,-458 -326,-644 -157,-114 -648,-131 -822,-39z"/>
   <path class="fil1" d="M1566 1165c-710,188 -526,1374 352,1180 739,-164 524,-1412 -352,-1180zm115 369c-263,70 -195,509 130,437 273,-61 194,-523 -130,-437z"/>
  </g>
 </g>
</svg>
