<?xml version="1.0" encoding="UTF-8"?>
<!DOCTYPE svg PUBLIC "-//W3C//DTD SVG 1.1//EN" "http://www.w3.org/Graphics/SVG/1.1/DTD/svg11.dtd">
<!-- Creator: CorelDRAW X7 -->
<svg xmlns="http://www.w3.org/2000/svg" xml:space="preserve" width="945px" height="945px" version="1.1" style="shape-rendering:geometricPrecision; text-rendering:geometricPrecision; image-rendering:optimizeQuality; fill-rule:evenodd; clip-rule:evenodd"
viewBox="0 0 346 346"
 xmlns:xlink="http://www.w3.org/1999/xlink">
 <defs>
  <style type="text/css">
   <![CDATA[
    .fil0 {fill:none}
    .fil1 {fill:white}
   ]]>
  </style>
 </defs>
 <g id="Layer_x0020_1">
  <metadata id="CorelCorpID_0Corel-Layer"/>
  <rect class="fil0" width="346" height="346"/>
  <path class="fil1" d="M154 231c-10,-25 -53,-39 -27,-85 35,-63 142,7 75,65 -28,25 -8,35 -16,99l-32 -1 0 -78zm99 -35c19,-63 -33,-117 -95,-109 -54,8 -96,73 -61,129 36,57 17,1 22,86 3,43 27,47 68,42 42,-5 36,-33 35,-73 0,-55 18,-29 31,-75z"/>
  <path class="fil1" d="M53 52c-21,13 -9,20 4,34 9,9 19,29 37,18 26,-17 -23,-64 -41,-52z"/>
  <path class="fil1" d="M1 162c-2,31 19,33 50,28 25,-4 29,-34 -20,-34 -10,0 -24,0 -30,6z"/>
  <path class="fil1" d="M277 161c-3,32 18,35 49,29 26,-5 28,-34 -19,-34 -10,0 -25,0 -30,5z"/>
  <path class="fil1" d="M244 100c16,9 23,5 35,-6 13,-11 21,-14 18,-37 -29,-20 -58,18 -53,43z"/>
  <path class="fil1" d="M154 32l0 5c0,41 34,49 34,5l0 -10c0,-43 -34,-41 -34,0z"/>
 </g>
</svg>
