<?xml version="1.0" encoding="UTF-8"?>
<!DOCTYPE svg PUBLIC "-//W3C//DTD SVG 1.1//EN" "http://www.w3.org/Graphics/SVG/1.1/DTD/svg11.dtd">
<!-- Creator: CorelDRAW X7 -->
<svg xmlns="http://www.w3.org/2000/svg" xml:space="preserve" width="945px" height="945px" version="1.1" style="shape-rendering:geometricPrecision; text-rendering:geometricPrecision; image-rendering:optimizeQuality; fill-rule:evenodd; clip-rule:evenodd"
viewBox="0 0 289 289"
 xmlns:xlink="http://www.w3.org/1999/xlink">
 <defs>
  <style type="text/css">
   <![CDATA[
    .fil2 {fill:none}
    .fil0 {fill:#0F252E}
    .fil1 {fill:#65F6F3}
   ]]>
  </style>
 </defs>
 <g id="Layer_x0020_1">
  <metadata id="CorelCorpID_0Corel-Layer"/>
  <g id="_423076480">
   <path class="fil0" d="M33 54l94 21 1 17 0 127 0 18 -95 -23 0 -160zm127 29c7,-12 -2,-7 21,-13l74 -15 0 160 -95 21 0 -153zm-155 151c6,10 -1,3 10,9l35 9c75,17 75,25 143,10 116,-25 94,-5 94,-131 0,-131 21,-120 -97,-95 -53,12 -47,10 -98,-1l-71 -16c-14,0 -11,2 -16,8 -7,12 -7,197 0,207z"/>
   <path class="fil1" d="M160 83l0 153 95 -21 0 -160 -74 15c-23,6 -14,1 -21,13z"/>
   <polygon class="fil1" points="33,214 128,237 128,219 128,92 127,75 33,54 "/>
  </g>
  <rect class="fil2" width="289" height="289"/>
 </g>
</svg>
