<?xml version="1.0" encoding="UTF-8"?>
<!DOCTYPE svg PUBLIC "-//W3C//DTD SVG 1.1//EN" "http://www.w3.org/Graphics/SVG/1.1/DTD/svg11.dtd">
<!-- Creator: CorelDRAW X7 -->
<svg xmlns="http://www.w3.org/2000/svg" xml:space="preserve" width="945px" height="945px" version="1.1" style="shape-rendering:geometricPrecision; text-rendering:geometricPrecision; image-rendering:optimizeQuality; fill-rule:evenodd; clip-rule:evenodd"
viewBox="0 0 346 346"
 xmlns:xlink="http://www.w3.org/1999/xlink">
 <defs>
  <style type="text/css">
   <![CDATA[
    .fil1 {fill:none}
    .fil0 {fill:black}
    .fil2 {fill:#65F6F3}
   ]]>
  </style>
 </defs>
 <g id="Layer_x0020_1">
  <metadata id="CorelCorpID_0Corel-Layer"/>
  <path class="fil0" d="M131 101l0 32 -46 0c-3,0 -6,4 -6,8l0 52c0,7 4,9 10,9l42 0 0 135c0,5 2,9 6,9l62 0c4,0 6,-4 6,-5l0 -139 50 0c7,0 10,-3 10,-10l0 -50c0,-5 -2,-9 -7,-9l-53 0 0 -31c0,-17 5,-24 23,-24 8,0 16,0 24,0 9,0 15,0 15,-8l0 -49c0,-4 -2,-8 -5,-8l-54 0c-8,0 -18,2 -26,5 -3,1 -4,2 -7,3 -5,2 -9,5 -13,8 -24,17 -31,44 -31,72z"/>
  <rect class="fil1" y="13" width="346" height="333"/>
  <path class="fil2" d="M140 88l0 32 -47 0c-2,0 -5,4 -5,8l0 52c0,7 4,9 10,9l42 0 0 135c0,5 2,9 5,9l63 0c4,0 6,-4 6,-5l0 -139 50 0c7,0 10,-3 10,-10l0 -50c0,-5 -2,-9 -7,-9l-53 0 0 -31c0,-17 5,-24 23,-24 8,0 15,0 23,0 9,0 16,0 16,-8l0 -49c0,-4 -3,-8 -6,-8l-53 0c-8,0 -19,2 -26,5 -3,1 -5,2 -8,3 -5,2 -9,5 -13,8 -23,17 -30,44 -30,72z"/>
 </g>
</svg>
